<svg width="3150" height="3150" viewBox="0 0 3150 3150" fill="none" xmlns="http://www.w3.org/2000/svg">
<path d="M557.895 1156.64H3010.71V2969.61H557.895V1156.64Z" fill="white"/>
<path d="M36.9141 1572.79V3110.87H3113.09V34.6992H36.9141V1572.79ZM2515.82 1449.74C2589.49 1466.84 2656.46 1505.37 2708.26 1560.48C2736.78 1590.17 2761.57 1623.23 2782.09 1658.92C2782.09 1662.86 2649.2 1752.68 2568.23 1802.88C2565.28 1804.85 2553.47 1792.05 2540.43 1772.61C2525.65 1747.11 2504.64 1725.77 2479.38 1710.58C2454.12 1695.38 2425.43 1686.84 2395.97 1685.74C2302.7 1679.34 2242.65 1728.32 2243.14 1808.79C2242.37 1828.82 2246.96 1848.7 2256.43 1866.37C2276.86 1908.95 2315 1934.3 2434.61 1985.98C2654.86 2080.72 2749.11 2143.23 2807.68 2232.07C2873.14 2330.51 2887.66 2489.48 2843.37 2607.12C2794.15 2735.09 2673.56 2821.96 2503.02 2850.75C2425.13 2859.67 2346.43 2858.84 2268.74 2848.29C2149.67 2828.66 2039.99 2771.49 1955.71 2685.13C1927.41 2653.87 1872.28 2572.42 1875.73 2566.51C1884.71 2559.84 1894.17 2553.84 1904.03 2548.55L2017.97 2485.55L2106.32 2434.36L2124.77 2461.68C2155.92 2506.23 2195.56 2544.2 2241.42 2573.4C2339.86 2625.08 2474.23 2617.95 2540.67 2558.14C2562.98 2536.23 2576.9 2507.19 2580 2476.07C2583.1 2444.95 2575.2 2413.73 2557.65 2387.85C2533.04 2353.64 2483.82 2324.85 2346.26 2264.8C2187.53 2196.39 2119.11 2154.06 2056.61 2086.63C2017.58 2042.13 1988.77 1989.63 1972.2 1932.82C1959.83 1867.91 1958 1801.44 1966.78 1735.95C1999.51 1582.63 2114.44 1475.58 2282.27 1443.83C2360 1434.21 2438.73 1436.37 2515.82 1450.23V1449.74ZM1793.78 1578.69V1704.69H1394.37V2842.38H1111.11V1704.45H710.719V1581.4C709.472 1538.97 710.457 1496.5 713.672 1454.17C715.641 1451.95 959.766 1451.95 1255.08 1451.95H1792.3L1793.78 1578.69Z" fill="#007ACC"/>
</svg>
